<?xml version="1.0" encoding="iso-8859-1"?>
<!-- Generator: Adobe Illustrator 19.0.0, SVG Export Plug-In . SVG Version: 6.00 Build 0)  -->
<svg class='arrow_down' version="1.1" id="Capa_1" xmlns="http://www.w3.org/2000/svg" xmlns:xlink="http://www.w3.org/1999/xlink" x="0px" y="0px"
	 viewBox="0 0 384.97 384.97" style="enable-background:new 0 0 384.97 384.97;" xml:space="preserve" >
<g>
	<g id="Arrow_Drop_Down_Circle">
		<path d="M192.485,0C86.185,0,0,86.185,0,192.485C0,298.797,86.185,384.97,192.485,384.97
			c106.312,0,192.485-86.173,192.485-192.485C384.97,86.185,298.797,0,192.485,0z M192.485,361.282
			c-92.874,0-168.424-75.923-168.424-168.797S99.611,24.061,192.485,24.061s168.424,75.55,168.424,168.424
			S285.359,361.282,192.485,361.282z"/>
		<path d="M281.196,157.356c-1.612-0.674-3.32-0.95-5.041-0.902H108.429c-10.671-0.289-16.602,12.872-8.926,20.476l84.2,82.997
			c4.644,4.596,12.548,4.596,17.191,0l84.104-82.913C291.218,171.083,289.136,160.556,281.196,157.356
			C279.584,156.695,285.599,159.137,281.196,157.356C279.584,156.695,285.599,159.137,281.196,157.356
			C279.584,156.695,285.599,159.137,281.196,157.356z M192.292,234.447l-54.846-54.064h109.692L192.292,234.447z"/>
	</g>
	<g>
	</g>
	<g>
	</g>
	<g>
	</g>
	<g>
	</g>
	<g>
	</g>
	<g>
	</g>
</g>
<g>
</g>
<g>
</g>
<g>
</g>
<g>
</g>
<g>
</g>
<g>
</g>
<g>
</g>
<g>
</g>
<g>
</g>
<g>
</g>
<g>
</g>
<g>
</g>
<g>
</g>
<g>
</g>
<g>
</g>
</svg>
